# xmcd
#
# Track frame offsets:
#	150
#	14739
#	34477
#	48879
#	66421
#	84930
#	101745
#	115686
#	133641
#	148571
#	165838
#	183188
#	203162
#	217568
#	231120
#	249918
#	267511
#
# Disc length: 3795 seconds
#
# Revision: 0
# Processed by: cddbd v1.5PL3 Copyright (c) Steve Scherf et al.
# Submitted via: EasyCDDAExtractor 4.6.9.1
#
DISCID=e30ed111
DTITLE=Kalúa - ...por siempre
DYEAR=2003
DGENRE=Cumbia
TTITLE0=Nada de nada
TTITLE1=2 locos
TTITLE2=Celosa
TTITLE3=La Marea
TTITLE4=Cumbia poderosa
TTITLE5=Volverte a Enamorar
TTITLE6=Saca polvos
TTITLE7=Si te tengo que olvidar
TTITLE8=El amigo que se fue
TTITLE9=No te llamaré
TTITLE10=Yo estaba loca por tí
TTITLE11=Vamos a bailar
TTITLE12=Alza la mano
TTITLE13=El guato
TTITLE14=Cumbia poderosa
TTITLE15=La Marea (ver. mix)
TTITLE16=Vamos a bailar
EXTD=DDM.
EXTT0=
EXTT1=
EXTT2=
EXTT3=
EXTT4=
EXTT5=
EXTT6=
EXTT7=
EXTT8=
EXTT9=
EXTT10=
EXTT11=
EXTT12=
EXTT13=
EXTT14=
EXTT15=
EXTT16=
PLAYORDER=
